<?xml version="1.0" encoding="UTF-8" standalone="no"?>
<svg width="1200" height="600" xmlns="http://www.w3.org/2000/svg">
  <defs>
    <linearGradient id="skyGradient" x1="0%" y1="0%" x2="0%" y2="100%">
      <stop offset="0%" style="stop-color:#2c3e50;stop-opacity:1" />
      <stop offset="100%" style="stop-color:#4a6b8a;stop-opacity:1" />
    </linearGradient>
    <pattern id="pattern" patternUnits="userSpaceOnUse" width="60" height="60">
      <path d="M0,30 L60,30" stroke="#ffffff" stroke-width="0.5" stroke-opacity="0.2"/>
      <path d="M30,0 L30,60" stroke="#ffffff" stroke-width="0.5" stroke-opacity="0.2"/>
    </pattern>
  </defs>
  
  <!-- Sky background -->
  <rect width="1200" height="600" fill="url(#skyGradient)" />
  
  <!-- Grid overlay -->
  <rect width="1200" height="600" fill="url(#pattern)" />
  
  <!-- Luxembourg skyline -->
  <g fill="#1a2634">
    <!-- Buildings -->
    <rect x="50" y="300" width="80" height="300" />
    <rect x="150" y="250" width="60" height="350" />
    <rect x="230" y="350" width="100" height="250" />
    <rect x="350" y="200" width="40" height="400" />
    <rect x="410" y="280" width="70" height="320" />
    <rect x="500" y="150" width="50" height="450" />
    <rect x="570" y="220" width="90" height="380" />
    <rect x="680" y="300" width="120" height="300" />
    <rect x="820" y="180" width="60" height="420" />
    <rect x="900" y="250" width="80" height="350" />
    <rect x="1000" y="320" width="100" height="280" />
    <rect x="1120" y="270" width="40" height="330" />
  </g>
  
  <!-- Highlights on buildings -->
  <g fill="#ffffff" fill-opacity="0.1">
    <rect x="60" y="320" width="15" height="280" />
    <rect x="160" y="270" width="10" height="330" />
    <rect x="250" y="370" width="20" height="230" />
    <rect x="360" y="220" width="8" height="380" />
    <rect x="420" y="300" width="15" height="300" />
    <rect x="510" y="170" width="10" height="430" />
    <rect x="590" y="240" width="15" height="360" />
    <rect x="700" y="320" width="25" height="280" />
    <rect x="830" y="200" width="12" height="400" />
    <rect x="910" y="270" width="16" height="330" />
    <rect x="1020" y="340" width="20" height="260" />
    <rect x="1130" y="290" width="8" height="310" />
  </g>
  
  <!-- Stars -->
  <g fill="#ffffff">
    <circle cx="100" y="50" r="1" />
    <circle cx="200" y="80" r="1.5" />
    <circle cx="350" y="30" r="1" />
    <circle cx="450" y="70" r="1.2" />
    <circle cx="600" y="40" r="1" />
    <circle cx="750" y="90" r="1.5" />
    <circle cx="900" y="60" r="1" />
    <circle cx="1050" y="30" r="1.2" />
    <circle cx="1150" y="80" r="1" />
  </g>
</svg>